{
  "accessors": [
    {
      "bufferView": 3,
      "componentType": 5126,
      "count": 9441,
      "max": [
        9.1968994140625,
        2.125732660293579,
        3.062406063079834
      ],
      "min": [
        -9.1968994140625,
        -3.223137140274048,
        -2.3117775917053223
      ],
      "type": "VEC3"
    },
    {
      "bufferView": 3,
      "byteOffset": 113292,
      "componentType": 5126,
      "count": 9441,
      "max": [
        1.0,
        1.0,
        1.0
      ],
      "min": [
        -1.0,
        -1.0,
        -1.0
      ],
      "type": "VEC3"
    },
    {
      "bufferView": 4,
      "componentType": 5126,
      "count": 9441,
      "max": [
        1.0,
        1.0,
        1.0,
        1.0
      ],
      "min": [
        -1.0,
        -1.0,
        -1.0,
        -1.0
      ],
      "type": "VEC4"
    },
    {
      "bufferView": 2,
      "componentType": 5126,
      "count": 9441,
      "max": [
        0.9973000288009644,
        0.9983999729156494
      ],
      "min": [
        0.002099999925121665,
        0.0034999847412109375
      ],
      "type": "VEC2"
    },
    {
      "bufferView": 1,
      "componentType": 5125,
      "count": 38484,
      "type": "SCALAR"
    },
    {
      "bufferView": 3,
      "byteOffset": 226584,
      "componentType": 5126,
      "count": 9714,
      "max": [
        2.560224771499634,
        0.9269080758094788,
        7.0490007400512695
      ],
      "min": [
        -2.560224771499634,
        -0.77541184425354,
        2.1546216011047363
      ],
      "type": "VEC3"
    },
    {
      "bufferView": 3,
      "byteOffset": 343152,
      "componentType": 5126,
      "count": 9714,
      "max": [
        1.0,
        1.0,
        1.0
      ],
      "min": [
        -1.0,
        -1.0,
        -1.0
      ],
      "type": "VEC3"
    },
    {
      "bufferView": 4,
      "byteOffset": 151056,
      "componentType": 5126,
      "count": 9714,
      "max": [
        1.0,
        1.0,
        1.0,
        1.0
      ],
      "min": [
        -1.0,
        -1.0,
        -1.0,
        -1.0
      ],
      "type": "VEC4"
    },
    {
      "bufferView": 2,
      "byteOffset": 75528,
      "componentType": 5126,
      "count": 9714,
      "max": [
        0.996999979019165,
        0.9980000257492065
      ],
      "min": [
        0.22280000150203705,
        0.14859998226165771
      ],
      "type": "VEC2"
    },
    {
      "bufferView": 1,
      "byteOffset": 153936,
      "componentType": 5125,
      "count": 42096,
      "type": "SCALAR"
    },
    {
      "bufferView": 3,
      "byteOffset": 459720,
      "componentType": 5126,
      "count": 3,
      "max": [
        352.68060302734375,
        74.15130615234375,
        -269.6060791015625
      ],
      "min": [
        351.1680603027344,
        74.15130615234375,
        -271.11865234375
      ],
      "type": "VEC3"
    },
    {
      "bufferView": 3,
      "byteOffset": 459756,
      "componentType": 5126,
      "count": 3,
      "max": [
        -9.334229201539963e-25,
        -1.0,
        1.5077056719382275e-23
      ],
      "min": [
        -9.334229201539963e-25,
        -1.0,
        1.5077056719382275e-23
      ],
      "type": "VEC3"
    },
    {
      "bufferView": 4,
      "byteOffset": 306480,
      "componentType": 5126,
      "count": 3,
      "max": [
        -1.0,
        9.334229201539963e-25,
        -3.015411343876455e-23,
        1.0
      ],
      "min": [
        -1.0,
        9.334229201539963e-25,
        -3.015411343876455e-23,
        1.0
      ],
      "type": "VEC4"
    },
    {
      "bufferView": 2,
      "byteOffset": 153240,
      "componentType": 5126,
      "count": 3,
      "max": [
        1.0,
        1.0
      ],
      "min": [
        0.0,
        0.0
      ],
      "type": "VEC2"
    },
    {
      "bufferView": 1,
      "byteOffset": 322320,
      "componentType": 5125,
      "count": 3,
      "type": "SCALAR"
    },
    {
      "bufferView": 3,
      "byteOffset": 459792,
      "componentType": 5126,
      "count": 3,
      "max": [
        -351.13116455078125,
        74.15130615234375,
        -270.9609680175781
      ],
      "min": [
        -352.64373779296875,
        74.15130615234375,
        -272.4735412597656
      ],
      "type": "VEC3"
    },
    {
      "bufferView": 3,
      "byteOffset": 459828,
      "componentType": 5126,
      "count": 3,
      "max": [
        -5.7166998530157135e-24,
        -1.0,
        -8.986626100171968e-31
      ],
      "min": [
        -5.7166998530157135e-24,
        -1.0,
        -8.986626100171968e-31
      ],
      "type": "VEC3"
    },
    {
      "bufferView": 4,
      "byteOffset": 306528,
      "componentType": 5126,
      "count": 3,
      "max": [
        -1.0,
        5.7166998530157135e-24,
        -3.015411343876455e-23,
        1.0
      ],
      "min": [
        -1.0,
        5.7166998530157135e-24,
        -3.015411343876455e-23,
        1.0
      ],
      "type": "VEC4"
    },
    {
      "bufferView": 2,
      "byteOffset": 153264,
      "componentType": 5126,
      "count": 3,
      "max": [
        1.0,
        1.0
      ],
      "min": [
        0.0,
        0.0
      ],
      "type": "VEC2"
    },
    {
      "bufferView": 1,
      "byteOffset": 322332,
      "componentType": 5125,
      "count": 3,
      "type": "SCALAR"
    },
    {
      "bufferView": 5,
      "componentType": 5126,
      "count": 21,
      "max": [
        2.5399999618530273,
        0.0,
        0.7059345841407776,
        0.0,
        0.7059345841407776,
        2.5399999618530273,
        1.0000004768371582,
        0.0,
        2.0513166987257136e-07,
        1.0000004768371582,
        2.5399999618530273,
        0.0,
        5.25,
        3.0,
        2.299999952316284,
        1.0
      ],
      "min": [
        0.708279013633728,
        -3.580028362648591e-08,
        0.0,
        0.0,
        -0.7059345841407776,
        -0.9999998807907104,
        -1.0000004768371582,
        0.0,
        -1.6858716378465033e-07,
        -1.0000004768371582,
        -1.000000238418579,
        0.0,
        -5.25,
        -3.0,
        -2.299999952316284,
        1.0
      ],
      "type": "MAT4"
    },
    {
      "bufferView": 0,
      "componentType": 5123,
      "count": 9441,
      "type": "VEC4"
    },
    {
      "bufferView": 4,
      "byteOffset": 306576,
      "componentType": 5126,
      "count": 9441,
      "max": [
        1.0,
        0.0,
        0.0,
        0.0
      ],
      "min": [
        1.0,
        0.0,
        0.0,
        0.0
      ],
      "type": "VEC4"
    },
    {
      "bufferView": 0,
      "byteOffset": 75528,
      "componentType": 5123,
      "count": 9714,
      "type": "VEC4"
    },
    {
      "bufferView": 4,
      "byteOffset": 457632,
      "componentType": 5126,
      "count": 9714,
      "max": [
        1.0,
        0.0,
        0.0,
        0.0
      ],
      "min": [
        1.0,
        0.0,
        0.0,
        0.0
      ],
      "type": "VEC4"
    },
    {
      "bufferView": 0,
      "byteOffset": 153240,
      "componentType": 5123,
      "count": 3,
      "type": "VEC4"
    },
    {
      "bufferView": 4,
      "byteOffset": 613056,
      "componentType": 5126,
      "count": 3,
      "max": [
        1.0,
        0.0,
        0.0,
        0.0
      ],
      "min": [
        1.0,
        0.0,
        0.0,
        0.0
      ],
      "type": "VEC4"
    },
    {
      "bufferView": 0,
      "byteOffset": 153264,
      "componentType": 5123,
      "count": 3,
      "type": "VEC4"
    },
    {
      "bufferView": 4,
      "byteOffset": 613104,
      "componentType": 5126,
      "count": 3,
      "max": [
        1.0,
        0.0,
        0.0,
        0.0
      ],
      "min": [
        1.0,
        0.0,
        0.0,
        0.0
      ],
      "type": "VEC4"
    }
  ],
  "asset": {
    "extras": {
      "author": "AngelGamer1411 (https://sketchfab.com/AngelGamer1411)",
      "license": "CC-BY-4.0 (http://creativecommons.org/licenses/by/4.0/)",
      "source": "https://sketchfab.com/3d-models/jet-pack-66588533434f45bf8c8022d9489131d7",
      "title": "Jet Pack"
    },
    "generator": "Sketchfab-16.12.0",
    "version": "2.0"
  },
  "bufferViews": [
    {
      "buffer": 0,
      "byteLength": 153288,
      "byteStride": 8,
      "name": "shortBufferViews",
      "target": 34962
    },
    {
      "buffer": 0,
      "byteLength": 322344,
      "byteOffset": 153288,
      "name": "floatBufferViews",
      "target": 34963
    },
    {
      "buffer": 0,
      "byteLength": 153288,
      "byteOffset": 475632,
      "byteStride": 8,
      "name": "floatBufferViews",
      "target": 34962
    },
    {
      "buffer": 0,
      "byteLength": 459864,
      "byteOffset": 628920,
      "byteStride": 12,
      "name": "floatBufferViews",
      "target": 34962
    },
    {
      "buffer": 0,
      "byteLength": 613152,
      "byteOffset": 1088784,
      "byteStride": 16,
      "name": "floatBufferViews",
      "target": 34962
    },
    {
      "buffer": 0,
      "byteLength": 1344,
      "byteOffset": 1701936,
      "name": "floatBufferViews"
    }
  ],
  "buffers": [
    {
      "byteLength": 1703280,
      "uri": "scene.bin"
    }
  ],
  "extensionsRequired": [
    "KHR_materials_pbrSpecularGlossiness"
  ],
  "extensionsUsed": [
    "KHR_materials_pbrSpecularGlossiness"
  ],
  "images": [
    {
      "uri": "textures/JetPack_diffuse.png"
    },
    {
      "uri": "textures/JetPack_specularGlossiness.png"
    },
    {
      "uri": "textures/JetPack_normal.png"
    }
  ],
  "materials": [
    {
      "doubleSided": true,
      "extensions": {
        "KHR_materials_pbrSpecularGlossiness": {
          "diffuseFactor": [
            1.0,
            1.0,
            1.0,
            1.0
          ],
          "diffuseTexture": {
            "index": 0
          },
          "glossinessFactor": 0.10573712634405641,
          "specularFactor": [
            1.0,
            1.0,
            1.0
          ],
          "specularGlossinessTexture": {
            "index": 1
          }
        }
      },
      "name": "JetPack",
      "normalTexture": {
        "index": 2
      }
    }
  ],
  "meshes": [
    {
      "name": "48_JetPack_0",
      "primitives": [
        {
          "attributes": {
            "JOINTS_0": 21,
            "NORMAL": 1,
            "POSITION": 0,
            "TANGENT": 2,
            "TEXCOORD_0": 3,
            "TEXCOORD_1": 3,
            "WEIGHTS_0": 22
          },
          "indices": 4,
          "material": 0,
          "mode": 4
        }
      ]
    },
    {
      "name": "44_JetPack_0",
      "primitives": [
        {
          "attributes": {
            "JOINTS_0": 23,
            "NORMAL": 6,
            "POSITION": 5,
            "TANGENT": 7,
            "TEXCOORD_0": 8,
            "TEXCOORD_1": 8,
            "WEIGHTS_0": 24
          },
          "indices": 9,
          "material": 0,
          "mode": 4
        }
      ]
    },
    {
      "name": "pPlane1_JetPack_0",
      "primitives": [
        {
          "attributes": {
            "JOINTS_0": 25,
            "NORMAL": 11,
            "POSITION": 10,
            "TANGENT": 12,
            "TEXCOORD_0": 13,
            "TEXCOORD_1": 13,
            "WEIGHTS_0": 26
          },
          "indices": 14,
          "material": 0,
          "mode": 4
        }
      ]
    },
    {
      "name": "pPlane2_JetPack_0",
      "primitives": [
        {
          "attributes": {
            "JOINTS_0": 27,
            "NORMAL": 16,
            "POSITION": 15,
            "TANGENT": 17,
            "TEXCOORD_0": 18,
            "TEXCOORD_1": 18,
            "WEIGHTS_0": 28
          },
          "indices": 19,
          "material": 0,
          "mode": 4
        }
      ]
    }
  ],
  "nodes": [
    {
      "children": [
        1
      ],
      "matrix": [
        1.0,
        0.0,
        0.0,
        0.0,
        0.0,
        2.220446049250313e-16,
        -1.0,
        0.0,
        0.0,
        1.0,
        2.220446049250313e-16,
        0.0,
        0.0,
        0.0,
        0.0,
        1.0
      ],
      "name": "Sketchfab_model"
    },
    {
      "children": [
        2
      ],
      "matrix": [
        0.009999999776482582,
        0.0,
        0.0,
        0.0,
        0.0,
        0.0,
        0.009999999776482582,
        0.0,
        0.0,
        -0.009999999776482582,
        0.0,
        0.0,
        0.0,
        0.0,
        0.0,
        1.0
      ],
      "name": "Optimus_JetPack.fbx"
    },
    {
      "children": [
        3
      ],
      "name": "RootNode"
    },
    {
      "children": [
        4,
        6,
        8,
        10,
        12,
        5,
        7,
        9,
        11
      ],
      "name": "Object_3"
    },
    {
      "children": [
        13
      ],
      "name": "_rootJoint"
    },
    {
      "matrix": [
        2.5400000000000005,
        0.0,
        0.0,
        0.0,
        0.0,
        1.5553014349171388e-16,
        -2.5400000000000005,
        0.0,
        0.0,
        2.5400000000000005,
        1.5553014349171388e-16,
        0.0,
        0.0,
        0.0,
        0.0,
        1.0
      ],
      "name": "Object_5"
    },
    {
      "mesh": 0,
      "name": "Object_6",
      "skin": 0
    },
    {
      "matrix": [
        2.5400000000000005,
        0.0,
        0.0,
        0.0,
        0.0,
        1.5553014349171388e-16,
        -2.5400000000000005,
        0.0,
        0.0,
        2.5400000000000005,
        1.5553014349171388e-16,
        0.0,
        -8.881784197001252e-16,
        9.860761315262648e-32,
        -1.7763568394002505e-15,
        1.0
      ],
      "name": "Object_7"
    },
    {
      "mesh": 1,
      "name": "Object_8",
      "skin": 0
    },
    {
      "matrix": [
        0.027431766173631265,
        -2.5605438907342514e-26,
        8.271806125530277e-25,
        0.0,
        2.560543890734251e-26,
        0.027431766173631262,
        -4.1359030627651384e-25,
        0.0,
        -8.271806125530276e-25,
        4.1359030627651384e-25,
        0.027431766173631262,
        0.0,
        -6.382459818369866,
        -1.3447996146940497,
        4.903261016296045,
        1.0
      ],
      "name": "Object_9"
    },
    {
      "mesh": 2,
      "name": "Object_10",
      "skin": 0
    },
    {
      "matrix": [
        0.02743176617363126,
        -1.5681916881754665e-25,
        8.271806125530277e-25,
        0.0,
        1.5681916881754665e-25,
        0.02743176617363126,
        2.465190328815662e-32,
        0.0,
        -8.271806125530277e-25,
        -2.4651903288156613e-32,
        0.02743176617363126,
        0.0,
        6.381790596947927,
        -1.3447996146940502,
        4.927832950940321,
        1.0
      ],
      "name": "Object_11"
    },
    {
      "mesh": 3,
      "name": "Object_12",
      "skin": 0
    },
    {
      "children": [
        14
      ],
      "name": "Root_00",
      "rotation": [
        -0.7071068286895752,
        -0.0,
        0.0,
        0.7071068286895752
      ],
      "scale": [
        2.5399999618530273,
        2.5399999618530273,
        2.5399999618530273
      ]
    },
    {
      "children": [
        15,
        16,
        17,
        23,
        29,
        31
      ],
      "name": "Bip_Spine_1_01",
      "rotation": [
        0.7071068286895752,
        0.0,
        0.0,
        0.7071068286895752
      ]
    },
    {
      "name": "Bip_LowerArm_L_02",
      "translation": [
        1.5,
        -3.0,
        0.0
      ]
    },
    {
      "name": "Bip_LowerArm_R_03",
      "rotation": [
        1.0,
        0.0,
        0.0,
        -7.54978373151971e-08
      ],
      "translation": [
        -1.5,
        -3.0,
        0.0
      ]
    },
    {
      "children": [
        18,
        20
      ],
      "name": "Bn_Thruster_L_04",
      "translation": [
        0.699999988079071,
        0.4000000059604645,
        -1.7000000476837158
      ]
    },
    {
      "children": [
        19
      ],
      "name": "Bn_UpperWing_1_L_05",
      "translation": [
        0.8999999165534973,
        0.8500000238418579,
        -0.6000003814697266
      ]
    },
    {
      "name": "Bn_UpperWing_2_L_06",
      "translation": [
        0.5999999046325684,
        -0.49000000953674316,
        0.1400003433227539
      ]
    },
    {
      "children": [
        21
      ],
      "name": "Bn_UpperArm_L_07",
      "rotation": [
        6.482112624439651e-10,
        0.38191741704940796,
        8.853107580364394e-09,
        0.9241964817047119
      ],
      "translation": [
        0.5543203949928284,
        -0.9261963367462158,
        0.6458473205566406
      ]
    },
    {
      "children": [
        22
      ],
      "name": "Bn_LowerArm_L_08",
      "rotation": [
        3.6301972539121152e-09,
        -0.3819173276424408,
        1.500151225464208e-09,
        0.9241964817047119
      ],
      "translation": [
        -1.1920928955078125e-07,
        -1.1920928955078125e-07,
        1.7800002098083496
      ]
    },
    {
      "name": "Bn_Hand_L_09",
      "rotation": [
        -1.6543612251060553e-24,
        1.3234889800848443e-23,
        3.6226370956292907e-16,
        1.0
      ],
      "translation": [
        2.384185791015625e-07,
        4.172325134277344e-07,
        1.736299991607666
      ]
    },
    {
      "children": [
        24,
        26
      ],
      "name": "Bn_Thruster_R_010",
      "rotation": [
        1.0,
        0.0,
        0.0,
        7.54978373151971e-08
      ],
      "translation": [
        -0.699999988079071,
        0.4000000059604645,
        -1.7000000476837158
      ]
    },
    {
      "children": [
        25
      ],
      "name": "Bn_UpperWing_1_R_011",
      "rotation": [
        6.622546950442448e-17,
        0.0,
        0.0,
        1.0
      ],
      "translation": [
        -0.8999999165534973,
        -0.8500000834465027,
        0.6000000238418579
      ]
    },
    {
      "name": "Bn_UpperWing_2_R_012",
      "rotation": [
        6.622544303464488e-17,
        0.0,
        0.0,
        1.0
      ],
      "translation": [
        -0.5999999046325684,
        0.49000006914138794,
        -0.1399998664855957
      ]
    },
    {
      "children": [
        27
      ],
      "name": "Bn_UpperArm_R_013",
      "rotation": [
        1.387718651102432e-08,
        0.38191738724708557,
        2.5102979250846147e-08,
        0.9241964817047119
      ],
      "scale": [
        0.9999998807907104,
        1.0000001192092896,
        1.0
      ],
      "translation": [
        -0.5543196797370911,
        0.9261959791183472,
        -0.6458499431610107
      ]
    },
    {
      "children": [
        28
      ],
      "name": "Bn_LowerArm_R_014",
      "rotation": [
        -2.5224531352563417e-09,
        -0.381917268037796,
        -6.166943844476691e-09,
        0.9241965413093567
      ],
      "scale": [
        1.000000238418579,
        1.0,
        0.9999998807907104
      ],
      "translation": [
        -1.1920928955078125e-06,
        1.7881393432617188e-07,
        -1.7799972295761108
      ]
    },
    {
      "name": "Bn_Hand_R_015",
      "rotation": [
        -9.313225746154785e-09,
        -1.4901161193847656e-08,
        1.0244546544413424e-08,
        1.0
      ],
      "scale": [
        1.0,
        1.0,
        0.9999999403953552
      ],
      "translation": [
        0.0,
        -1.1920928955078125e-07,
        -1.736297369003296
      ]
    },
    {
      "children": [
        30
      ],
      "name": "Bn_LowerWing_1_L_016",
      "translation": [
        1.399999976158142,
        -0.25,
        -1.25
      ]
    },
    {
      "name": "Bn_LowerWing_2_L_017",
      "translation": [
        3.8499999046325684,
        -0.75,
        -0.28999996185302734
      ]
    },
    {
      "children": [
        32
      ],
      "name": "Bn_LowerWing_1_R_018",
      "rotation": [
        1.0,
        0.0,
        0.0,
        7.54978373151971e-08
      ],
      "translation": [
        -1.399999976158142,
        -0.25,
        -1.25
      ]
    },
    {
      "name": "Bn_LowerWing_2_R_019",
      "rotation": [
        6.622546950442448e-17,
        0.0,
        0.0,
        1.0
      ],
      "translation": [
        -3.8499999046325684,
        0.7499999403953552,
        0.2900000810623169
      ]
    }
  ],
  "samplers": [
    {
      "magFilter": 9729,
      "minFilter": 9987,
      "wrapS": 10497,
      "wrapT": 10497
    }
  ],
  "scene": 0,
  "scenes": [
    {
      "name": "Sketchfab_Scene",
      "nodes": [
        0
      ]
    }
  ],
  "skins": [
    {
      "inverseBindMatrices": 20,
      "joints": [
        4,
        13,
        14,
        15,
        16,
        17,
        18,
        19,
        20,
        21,
        22,
        23,
        24,
        25,
        26,
        27,
        28,
        29,
        30,
        31,
        32
      ],
      "skeleton": 4
    }
  ],
  "textures": [
    {
      "sampler": 0,
      "source": 0
    },
    {
      "sampler": 0,
      "source": 1
    },
    {
      "sampler": 0,
      "source": 2
    }
  ]
}
