{
  "accessors": [
    {
      "bufferView": 2,
      "componentType": 5126,
      "count": 2700,
      "max": [
        16.36346435546875,
        9.436715126037598,
        3.1862683296203613
      ],
      "min": [
        -16.36346435546875,
        -13.388059616088867,
        -6.0865092277526855
      ],
      "type": "VEC3"
    },
    {
      "bufferView": 2,
      "byteOffset": 32400,
      "componentType": 5126,
      "count": 2700,
      "max": [
        0.8139088749885559,
        0.9999220371246338,
        0.8669168949127197
      ],
      "min": [
        -0.8139088749885559,
        -1.0,
        -0.8507947325706482
      ],
      "type": "VEC3"
    },
    {
      "bufferView": 1,
      "componentType": 5126,
      "count": 2700,
      "max": [
        1.0,
        0.0
      ],
      "min": [
        0.0,
        0.0
      ],
      "type": "VEC2"
    },
    {
      "bufferView": 0,
      "componentType": 5125,
      "count": 6108,
      "type": "SCALAR"
    },
    {
      "bufferView": 2,
      "byteOffset": 64800,
      "componentType": 5126,
      "count": 1960,
      "max": [
        10.773147583007813,
        4.849216461181641,
        3.363459348678589
      ],
      "min": [
        -10.773147583007813,
        -7.797208309173584,
        -2.456188440322876
      ],
      "type": "VEC3"
    },
    {
      "bufferView": 2,
      "byteOffset": 88320,
      "componentType": 5126,
      "count": 1960,
      "max": [
        0.8141093254089355,
        1.0,
        0.8386566042900085
      ],
      "min": [
        -0.8141093254089355,
        -0.9999487996101379,
        -0.838657021522522
      ],
      "type": "VEC3"
    },
    {
      "bufferView": 1,
      "byteOffset": 21600,
      "componentType": 5126,
      "count": 1960,
      "max": [
        1.0,
        0.0
      ],
      "min": [
        0.0,
        0.0
      ],
      "type": "VEC2"
    },
    {
      "bufferView": 0,
      "byteOffset": 24432,
      "componentType": 5125,
      "count": 3996,
      "type": "SCALAR"
    },
    {
      "bufferView": 2,
      "byteOffset": 111840,
      "componentType": 5126,
      "count": 28,
      "max": [
        11.344683647155762,
        5.233059883117676,
        1.3345130681991577
      ],
      "min": [
        -11.344683647155762,
        -4.00010347366333,
        -2.822357416152954
      ],
      "type": "VEC3"
    },
    {
      "bufferView": 2,
      "byteOffset": 112176,
      "componentType": 5126,
      "count": 28,
      "max": [
        0.544661819934845,
        4.323927896621171e-06,
        0.8386572003364563
      ],
      "min": [
        -0.544661819934845,
        -5.404909870776464e-07,
        -0.838656485080719
      ],
      "type": "VEC3"
    },
    {
      "bufferView": 1,
      "byteOffset": 37280,
      "componentType": 5126,
      "count": 28,
      "max": [
        1.0,
        0.0
      ],
      "min": [
        0.0,
        0.0
      ],
      "type": "VEC2"
    },
    {
      "bufferView": 0,
      "byteOffset": 40416,
      "componentType": 5125,
      "count": 36,
      "type": "SCALAR"
    },
    {
      "bufferView": 2,
      "byteOffset": 112512,
      "componentType": 5126,
      "count": 96,
      "max": [
        9.161316871643066,
        3.720778465270996,
        0.6844536662101746
      ],
      "min": [
        -9.161316871643066,
        1.864112377166748,
        -1.4043798446655273
      ],
      "type": "VEC3"
    },
    {
      "bufferView": 2,
      "byteOffset": 113664,
      "componentType": 5126,
      "count": 96,
      "max": [
        0.7248812913894653,
        0.9860785007476807,
        0.8386561274528503
      ],
      "min": [
        -0.7248815298080444,
        -1.0,
        -0.8386562466621399
      ],
      "type": "VEC3"
    },
    {
      "bufferView": 1,
      "byteOffset": 37504,
      "componentType": 5126,
      "count": 96,
      "max": [
        1.0,
        1.0
      ],
      "min": [
        0.0,
        0.0
      ],
      "type": "VEC2"
    },
    {
      "bufferView": 0,
      "byteOffset": 40560,
      "componentType": 5125,
      "count": 144,
      "type": "SCALAR"
    }
  ],
  "asset": {
    "extras": {
      "author": "3DMode (https://sketchfab.com/3DModele)",
      "license": "CC-BY-4.0 (http://creativecommons.org/licenses/by/4.0/)",
      "source": "https://sketchfab.com/3d-models/mechanical-wings-d0f41546251e4f028a8cba91a1728168",
      "title": "Mechanical Wings"
    },
    "generator": "Sketchfab-12.65.0",
    "version": "2.0"
  },
  "bufferViews": [
    {
      "buffer": 0,
      "byteLength": 41136,
      "name": "floatBufferViews",
      "target": 34963
    },
    {
      "buffer": 0,
      "byteLength": 38272,
      "byteOffset": 41136,
      "byteStride": 8,
      "name": "floatBufferViews",
      "target": 34962
    },
    {
      "buffer": 0,
      "byteLength": 114816,
      "byteOffset": 79408,
      "byteStride": 12,
      "name": "floatBufferViews",
      "target": 34962
    }
  ],
  "buffers": [
    {
      "byteLength": 194224,
      "uri": "scene.bin"
    }
  ],
  "materials": [
    {
      "doubleSided": true,
      "name": "White",
      "pbrMetallicRoughness": {
        "baseColorFactor": [
          0.6847848324620606,
          0.04824415214737512,
          0.08360303336498096,
          1.0
        ],
        "roughnessFactor": 0.5479115422602233
      }
    },
    {
      "doubleSided": true,
      "name": "Black",
      "pbrMetallicRoughness": {
        "baseColorFactor": [
          0.023127056413766237,
          0.023127056413766237,
          0.023127056413766237,
          1.0
        ],
        "roughnessFactor": 0.20802734566149297
      }
    },
    {
      "doubleSided": true,
      "emissiveFactor": [
        0.0,
        1.0,
        1.0
      ],
      "name": "Pink",
      "pbrMetallicRoughness": {
        "baseColorFactor": [
          0.05081629999999997,
          0.7428299999999997,
          0.8900050000000002,
          1.0
        ],
        "metallicFactor": 0.0,
        "roughnessFactor": 0.160420877
      }
    },
    {
      "doubleSided": true,
      "name": "White.001",
      "pbrMetallicRoughness": {
        "baseColorFactor": [
          0.262509,
          0.300655,
          0.318546,
          1.0
        ],
        "roughnessFactor": 0.4629404931105407
      }
    }
  ],
  "meshes": [
    {
      "name": "Plane.027_White_0",
      "primitives": [
        {
          "attributes": {
            "NORMAL": 1,
            "POSITION": 0,
            "TEXCOORD_0": 2
          },
          "indices": 3,
          "material": 0,
          "mode": 4
        }
      ]
    },
    {
      "name": "Plane.027_Black_0",
      "primitives": [
        {
          "attributes": {
            "NORMAL": 5,
            "POSITION": 4,
            "TEXCOORD_0": 6
          },
          "indices": 7,
          "material": 1,
          "mode": 4
        }
      ]
    },
    {
      "name": "Plane.027_Pink_0",
      "primitives": [
        {
          "attributes": {
            "NORMAL": 9,
            "POSITION": 8,
            "TEXCOORD_0": 10
          },
          "indices": 11,
          "material": 2,
          "mode": 4
        }
      ]
    },
    {
      "name": "Plane.027_White.001_0",
      "primitives": [
        {
          "attributes": {
            "NORMAL": 13,
            "POSITION": 12,
            "TEXCOORD_0": 14
          },
          "indices": 15,
          "material": 3,
          "mode": 4
        }
      ]
    }
  ],
  "nodes": [
    {
      "children": [
        1
      ],
      "matrix": [
        1.0,
        0.0,
        0.0,
        0.0,
        0.0,
        2.220446049250313e-16,
        -1.0,
        0.0,
        0.0,
        1.0,
        2.220446049250313e-16,
        0.0,
        0.0,
        0.0,
        0.0,
        1.0
      ],
      "name": "Sketchfab_model"
    },
    {
      "children": [
        2
      ],
      "matrix": [
        1.0,
        0.0,
        0.0,
        0.0,
        0.0,
        0.0,
        1.0,
        0.0,
        0.0,
        -1.0,
        0.0,
        0.0,
        0.0,
        0.0,
        0.0,
        1.0
      ],
      "name": "59d589f3ad2d4331be2e17996ef23d0c.fbx"
    },
    {
      "children": [
        3
      ],
      "name": "RootNode"
    },
    {
      "children": [
        4,
        5,
        6,
        7
      ],
      "matrix": [
        100.0,
        0.0,
        0.0,
        0.0,
        0.0,
        99.9999999999999,
        4.371138828673792e-06,
        0.0,
        0.0,
        -4.581054006766156e-06,
        104.80229949951162,
        0.0,
        0.0,
        1414.611572265625,
        0.0,
        1.0
      ],
      "name": "Plane.027"
    },
    {
      "mesh": 0,
      "name": "Plane.027_White_0"
    },
    {
      "mesh": 1,
      "name": "Plane.027_Black_0"
    },
    {
      "mesh": 2,
      "name": "Plane.027_Pink_0"
    },
    {
      "mesh": 3,
      "name": "Plane.027_White.001_0"
    }
  ],
  "scene": 0,
  "scenes": [
    {
      "name": "Sketchfab_Scene",
      "nodes": [
        0
      ]
    }
  ]
}
